<svg width="27" height="30" viewBox="0 0 27 30" fill="none" xmlns="http://www.w3.org/2000/svg">
<g clip-path="url(#clip0_212_4)">
<path d="M25.6992 16.3242C26.4316 15.5918 26.4316 14.4023 25.6992 13.6699L16.3242 4.29492C15.5918 3.5625 14.4023 3.5625 13.6699 4.29492C12.9375 5.02734 12.9375 6.2168 13.6699 6.94922L19.8516 13.125H1.875C0.837891 13.125 0 13.9629 0 15C0 16.0371 0.837891 16.875 1.875 16.875H19.8457L13.6758 23.0508C12.9434 23.7832 12.9434 24.9727 13.6758 25.7051C14.4082 26.4375 15.5977 26.4375 16.3301 25.7051L25.7051 16.3301L25.6992 16.3242Z" fill="#000749"/>
</g>
<defs>
<clipPath id="clip0_212_4">
<rect width="26.25" height="30" fill="white"/>
</clipPath>
</defs>
</svg>
