<svg width="254" height="254" viewBox="0 0 254 254" fill="none" xmlns="http://www.w3.org/2000/svg">
<g clip-path="url(#clip0_230_21)">
<path d="M54.3879 118.034C47.4026 118.394 40.58 120.966 35.0402 125.475C34.3068 126.041 33.6939 126.748 33.2376 127.554C32.7813 128.36 32.4908 129.249 32.3833 130.169C32.2757 131.089 32.3532 132.021 32.6112 132.911C32.8692 133.8 33.3026 134.629 33.8857 135.349C34.4688 136.068 35.19 136.664 36.0068 137.101C36.8235 137.538 37.7194 137.807 38.6417 137.892C39.564 137.977 40.494 137.878 41.3771 137.598C42.2602 137.319 43.0785 136.866 43.7839 136.265C48.5091 132.419 55.6074 130.966 61.4572 132.669C65.5865 133.871 70.0105 136.814 75.2859 139.986C80.6241 143.196 87.2365 146.708 95.2536 146.621C102.828 146.54 108.879 143.378 113.857 140.854L114.167 140.668C119.101 138.173 123.362 136.327 126.88 136.327C130.397 136.327 134.72 138.173 139.654 140.668C144.686 143.213 150.845 146.538 158.568 146.621C166.585 146.708 173.197 143.196 178.535 139.986C183.811 136.814 188.173 133.871 192.302 132.669C198.152 130.966 205.25 132.419 209.975 136.265C211.406 137.433 213.242 137.985 215.08 137.799C216.917 137.612 218.605 136.704 219.773 135.273C220.941 133.842 221.492 132.006 221.306 130.169C221.12 128.331 220.212 126.643 218.781 125.475C210.339 118.604 198.908 116.294 188.457 119.336C181.403 121.39 176.049 125.25 171.342 128.08C166.698 130.872 162.321 132.77 158.692 132.731C155.185 132.693 150.907 130.789 145.917 128.266C140.83 125.693 134.592 122.437 126.88 122.437C119.167 122.437 112.992 125.693 107.904 128.266C102.914 130.79 98.5743 132.693 95.0676 132.731C91.4378 132.77 87.0612 130.872 82.4172 128.08C77.7102 125.25 72.418 121.39 65.364 119.336C62.7513 118.576 60.0377 118.137 57.3645 118.034C56.362 117.995 55.3858 117.983 54.3879 118.034V118.034ZM54.3879 152.14C47.4026 152.501 40.58 155.073 35.0402 159.582C34.244 160.123 33.5691 160.824 33.0582 161.64C32.5474 162.457 32.2118 163.37 32.0728 164.323C31.9338 165.276 31.9943 166.247 32.2507 167.175C32.507 168.103 32.9535 168.968 33.5618 169.714C34.1701 170.46 34.9269 171.072 35.7842 171.51C36.6415 171.949 37.5806 172.204 38.5418 172.26C39.503 172.316 40.4654 172.172 41.3678 171.836C42.2702 171.5 43.093 170.98 43.7839 170.31C48.5091 166.464 55.6074 165.072 61.4572 166.775C65.5865 167.977 70.0105 170.921 75.2859 174.093C80.6241 177.302 87.2365 180.814 95.2536 180.728C102.976 180.644 109.136 177.319 114.167 174.775C119.101 172.279 123.362 170.434 126.88 170.434C130.397 170.434 134.72 172.279 139.654 174.775C144.686 177.319 150.845 180.645 158.568 180.728C166.585 180.814 173.197 177.302 178.535 174.093C183.811 170.921 188.173 167.977 192.302 166.775C198.152 165.072 205.25 166.464 209.975 170.31C210.674 170.935 211.491 171.413 212.379 171.714C213.267 172.015 214.206 172.133 215.141 172.061C216.075 171.99 216.986 171.729 217.817 171.297C218.648 170.864 219.384 170.267 219.978 169.543C220.573 168.818 221.015 167.981 221.277 167.081C221.54 166.181 221.618 165.237 221.506 164.307C221.394 163.376 221.095 162.478 220.626 161.666C220.158 160.854 219.53 160.145 218.781 159.582C210.339 152.711 198.908 150.4 188.457 153.443C181.403 155.496 176.049 159.356 171.342 162.186C166.698 164.978 162.322 166.876 158.692 166.837C155.185 166.799 150.907 164.896 145.917 162.372C140.83 159.799 134.592 156.543 126.88 156.543C119.167 156.543 112.992 159.799 107.904 162.372C102.914 164.896 98.5744 166.799 95.0676 166.837C91.4378 166.876 87.0612 164.978 82.4172 162.186C77.7102 159.356 72.418 155.496 65.364 153.443C62.7513 152.682 60.0377 152.244 57.3645 152.14C56.362 152.102 55.3858 152.089 54.3879 152.14V152.14ZM54.3879 186.185C47.4026 186.545 40.58 189.117 35.0402 193.626C34.3068 194.192 33.6939 194.899 33.2376 195.705C32.7813 196.511 32.4908 197.4 32.3833 198.32C32.2757 199.24 32.3532 200.172 32.6112 201.061C32.8692 201.951 33.3026 202.78 33.8857 203.5C34.4688 204.219 35.19 204.815 36.0068 205.252C36.8235 205.688 37.7194 205.957 38.6417 206.043C39.564 206.128 40.494 206.028 41.3771 205.749C42.2602 205.47 43.0785 205.017 43.7839 204.416C48.5091 200.57 55.6074 199.117 61.4572 200.82C65.5865 202.022 70.0105 204.965 75.2859 208.137C80.6241 211.347 87.2365 214.859 95.2536 214.772C102.977 214.689 109.136 211.364 114.167 208.819C119.101 206.324 123.362 204.478 126.88 204.478C130.397 204.478 134.72 206.324 139.654 208.819C144.686 211.364 150.845 214.689 158.568 214.772C166.585 214.859 173.197 211.347 178.535 208.137C183.811 204.965 188.173 202.022 192.302 200.82C198.152 199.117 205.25 200.57 209.975 204.416C210.684 204.995 211.499 205.427 212.375 205.691C213.251 205.954 214.17 206.042 215.08 205.949C215.99 205.857 216.872 205.587 217.678 205.154C218.483 204.72 219.195 204.133 219.773 203.424C220.351 202.716 220.784 201.9 221.047 201.024C221.31 200.149 221.398 199.23 221.306 198.32C221.214 197.41 220.944 196.527 220.51 195.722C220.077 194.917 219.489 194.204 218.781 193.626C210.339 186.755 198.908 184.445 188.457 187.487C181.403 189.541 176.049 193.401 171.342 196.231C166.698 199.023 162.322 200.921 158.692 200.882C155.185 200.844 150.907 198.94 145.917 196.417C140.83 193.844 134.592 190.588 126.88 190.588C119.167 190.588 112.992 193.844 107.904 196.417C102.914 198.94 98.5743 200.844 95.0676 200.882C91.4378 200.921 87.0612 199.023 82.4172 196.231C77.7102 193.401 72.418 189.541 65.364 187.487C62.7513 186.726 60.0377 186.288 57.3645 186.185C56.362 186.146 55.3858 186.133 54.3879 186.185V186.185Z" fill="#9B9090"/>
<path opacity="0.5" d="M105.569 59.05C113.903 50.7156 125.016 45.5562 137.716 45.5562C154.384 45.5562 169.069 54.6844 177.006 68.1781C183.753 65.4 191.294 63.4156 199.231 63.4156C229.394 63.8125 254 88.0219 254 117.787C254 147.95 229.394 172.159 199.231 172.159C195.659 172.159 192.087 171.763 188.516 170.969C181.769 182.875 168.672 191.209 153.591 191.209C147.241 191.209 141.287 189.622 136.128 187.241C128.984 203.116 113.109 214.625 94.0594 214.625C74.2156 214.625 57.5469 202.322 51.1969 185.256C48.4187 185.653 45.6406 186.05 42.4656 186.05C19.05 186.05 0 167.397 0 143.981C0 128.503 8.33437 114.612 21.0344 107.469C18.2562 101.516 17.0656 95.1656 17.0656 88.4188C17.0656 61.8281 39.2906 40 66.2781 40C82.55 40 96.8375 47.5406 105.569 59.05Z" fill="#B4B4B4"/>
</g>
<defs>
<clipPath id="clip0_230_21">
<rect width="254" height="254" fill="white"/>
</clipPath>
</defs>
</svg>
