<svg width="24" height="24" viewBox="0 0 30 30" fill="none" xmlns="http://www.w3.org/2000/svg">
<g clip-path="url(#clip0_212_8)">
<path d="M24.375 12.1875C24.375 14.877 23.502 17.3613 22.0312 19.377L29.4492 26.8008C30.1816 27.5332 30.1816 28.7227 29.4492 29.4551C28.7168 30.1875 27.5273 30.1875 26.7949 29.4551L19.377 22.0312C17.3613 23.5078 14.877 24.375 12.1875 24.375C5.45508 24.375 0 18.9199 0 12.1875C0 5.45508 5.45508 0 12.1875 0C18.9199 0 24.375 5.45508 24.375 12.1875ZM12.1875 20.625C16.8457 20.625 20.625 16.8457 20.625 12.1875C20.625 7.5293 16.8457 3.75 12.1875 3.75C7.5293 3.75 3.75 7.5293 3.75 12.1875C3.75 16.8457 7.5293 20.625 12.1875 20.625Z" fill="#000749"/>
</g>
<defs>
<clipPath id="clip0_212_8">
<rect width="30" height="30" fill="white"/>
</clipPath>
</defs>
</svg>
