<svg width="24" height="24" viewBox="0 0 30 30" fill="none" xmlns="http://www.w3.org/2000/svg">
<g clip-path="url(#clip0_212_2)">
<path d="M24.375 12.1875C24.375 14.877 23.502 17.3613 22.0312 19.377L29.4492 26.8008C30.1816 27.5332 30.1816 28.7227 29.4492 29.4551C28.7168 30.1875 27.5273 30.1875 26.7949 29.4551L19.377 22.0312C17.3613 23.5078 14.877 24.375 12.1875 24.375C5.45508 24.375 0 18.9199 0 12.1875C0 5.45508 5.45508 0 12.1875 0C18.9199 0 24.375 5.45508 24.375 12.1875ZM10.7812 17.3438C10.7812 18.123 11.4082 18.75 12.1875 18.75C12.9668 18.75 13.5938 18.123 13.5938 17.3438V13.5938H17.3438C18.123 13.5938 18.75 12.9668 18.75 12.1875C18.75 11.4082 18.123 10.7812 17.3438 10.7812H13.5938V7.03125C13.5938 6.25195 12.9668 5.625 12.1875 5.625C11.4082 5.625 10.7812 6.25195 10.7812 7.03125V10.7812H7.03125C6.25195 10.7812 5.625 11.4082 5.625 12.1875C5.625 12.9668 6.25195 13.5938 7.03125 13.5938H10.7812V17.3438Z" fill="#000749"/>
</g>
<defs>
<clipPath id="clip0_212_2">
<rect width="30" height="30" fill="white"/>
</clipPath>
</defs>
</svg>
