<svg width="126" height="126" viewBox="0 0 126 126" fill="none" xmlns="http://www.w3.org/2000/svg">
<g clip-path="url(#clip0_237_10)">
<path d="M82.9813 35.7004L81.8588 23.844L72.1717 30.7721L60.5488 28.1756L81.6343 47.5037L92.564 42.7725L82.9813 35.7004Z" fill="#E9CC57"/>
<path d="M64.1444 39.5293L58.0833 49.7812L69.9925 49.8701L77.8699 58.8026L81.6343 47.5037L60.5488 28.1757L64.1444 39.5293Z" fill="#E2C85B"/>
<path d="M95.856 83.0961C81.8384 92.3668 62.0075 91.0963 48.4196 78.6408C34.8316 66.1853 31.8445 46.5396 39.8633 31.7702C42.5319 26.8527 46.0554 22.8385 50.0833 19.8014C42.8672 22.0673 36.1289 26.1933 30.6508 32.1695C14.0427 50.2876 15.2679 78.4357 33.3848 95.0426C51.5016 111.649 79.6498 110.427 96.2579 92.3086C101.736 86.3324 105.261 79.2614 106.892 71.8758C104.216 76.1522 100.523 80.0108 95.856 83.0961Z" fill="#E2C85B"/>
<path d="M63.4543 62.2391C51.315 51.1115 46.7716 34.8026 50.0833 19.8014C46.0554 22.8386 42.5319 26.8528 39.8633 31.7702C31.8445 46.5396 34.8316 66.1854 48.4196 78.6408C62.0075 91.0963 81.8384 92.3668 95.856 83.0962C100.523 80.0108 104.216 76.1522 106.892 71.8758C92.2353 76.4772 75.5936 73.3666 63.4543 62.2391Z" fill="#E9CC57"/>
<path d="M104.963 42.2551L100.147 45.6997L94.3669 44.4084L104.851 54.0188L110.286 51.666L105.521 48.1501L104.963 42.2551Z" fill="#E9CC57"/>
<path d="M96.155 50.0541L93.1416 55.1515L99.063 55.1956L102.98 59.6368L104.851 54.0188L94.3669 44.4084L96.155 50.0541Z" fill="#E2C85B"/>
</g>
<defs>
<clipPath id="clip0_237_10">
<rect width="89" height="89" fill="white" transform="translate(0 65.6071) rotate(-47.4899)"/>
</clipPath>
</defs>
</svg>
