<svg width="11" height="12" viewBox="0 0 11 12" fill="none" xmlns="http://www.w3.org/2000/svg">
<path d="M5.49719 1L8.68094 3.9298C9.31057 4.50883 9.73944 5.24669 9.91332 6.05006C10.0872 6.85342 9.99825 7.68619 9.65774 8.44303C9.31723 9.19987 8.74046 9.84677 8.00037 10.3019C7.26029 10.7571 6.39014 11 5.5 11C4.60986 11 3.73971 10.7571 2.99963 10.3019C2.25954 9.84677 1.68277 9.19987 1.34226 8.44303C1.00175 7.68619 0.912812 6.85342 1.08668 6.05006C1.26056 5.24669 1.68943 4.50883 2.31906 3.9298L5.49719 1Z" stroke="url(#paint0_linear_39_9)" stroke-opacity="0.31" stroke-width="2" stroke-linecap="round" stroke-linejoin="round"/>
<defs>
<linearGradient id="paint0_linear_39_9" x1="5.5" y1="1" x2="5.5" y2="11" gradientUnits="userSpaceOnUse">
<stop offset="0.338542" stop-color="#C7C7C7"/>
<stop offset="1" stop-color="#48CAE4"/>
</linearGradient>
</defs>
</svg>
