<svg width="254" height="254" viewBox="0 0 254 254" fill="none" xmlns="http://www.w3.org/2000/svg">
<path d="M65.6771 71.7528C68.4882 71.7528 70.7669 69.4741 70.7669 66.663C70.7669 63.852 68.4882 61.5732 65.6771 61.5732C62.8661 61.5732 60.5873 63.852 60.5873 66.663C60.5873 69.4741 62.8661 71.7528 65.6771 71.7528Z" fill="white"/>
<path d="M101.306 198.998C104.117 198.998 106.396 196.719 106.396 193.908C106.396 191.097 104.117 188.818 101.306 188.818C98.4948 188.818 96.216 191.097 96.216 193.908C96.216 196.719 98.4948 198.998 101.306 198.998Z" fill="white"/>
<path d="M208.192 122.651C211.003 122.651 213.281 120.372 213.281 117.561C213.281 114.75 211.003 112.471 208.192 112.471C205.381 112.471 203.102 114.75 203.102 117.561C203.102 120.372 205.381 122.651 208.192 122.651Z" fill="white"/>
<path d="M145.471 179.986C143.399 178.072 140.183 178.211 138.279 180.284L130.277 188.979C130.007 188.935 129.763 188.818 129.481 188.818H115.637C115.46 188.322 115.271 187.838 115.045 187.366L124.826 177.585C125.14 177.271 125.317 176.888 125.532 176.523L136.671 176.988C136.746 176.993 136.818 176.993 136.887 176.993C139.601 176.993 141.855 174.851 141.97 172.117C142.086 169.309 139.907 166.938 137.099 166.819L128.348 166.451L127.985 157.708C127.871 154.9 125.562 152.613 122.689 152.832C119.881 152.946 117.698 155.317 117.815 158.125L118.305 169.938C118.083 170.098 117.829 170.188 117.629 170.388L107.848 180.169C107.376 179.943 106.892 179.754 106.395 179.577V165.735C106.395 165.292 106.249 164.896 106.143 164.486L114.351 156.932C116.419 155.029 116.553 151.813 114.649 149.745C112.748 147.672 109.529 147.533 107.457 149.447L101.015 155.372L94.5732 149.447C92.5005 147.533 89.2821 147.672 87.381 149.745C85.4772 151.813 85.6115 155.029 87.6792 156.932L96.3769 164.937C96.3325 165.208 96.216 165.452 96.216 165.735V179.577C95.7192 179.754 95.2352 179.943 94.7636 180.169L84.9825 170.388C84.6694 170.074 84.286 169.897 83.9213 169.683L84.3836 158.538C84.5004 155.73 82.3184 153.359 79.51 153.244C76.5549 153.016 74.3282 155.312 74.2139 158.12L73.851 166.863L65.1003 167.231C62.292 167.351 60.1125 169.722 60.2293 172.53C60.3435 175.264 62.5977 177.406 65.3116 177.406C65.3812 177.406 65.4532 177.406 65.5278 177.401L77.335 176.907C77.4947 177.129 77.585 177.385 77.7852 177.585L87.5662 187.366C87.3404 187.838 87.1512 188.322 86.9742 188.818H73.1304C72.6868 188.818 72.2901 188.964 71.88 189.071L64.3325 180.866C62.4264 178.793 59.2104 178.659 57.1427 180.562C55.0724 182.466 54.9383 185.687 56.842 187.755L62.7693 194.201L56.842 200.643C54.9383 202.711 55.0725 205.932 57.1403 207.83C58.1194 208.735 59.3546 209.177 60.5848 209.177C61.9592 209.177 63.3285 208.626 64.3325 207.532L72.3347 198.837C72.6044 198.881 72.8479 198.998 73.1303 198.998H86.9745C87.1517 199.494 87.3405 199.978 87.5664 200.45L77.7853 210.231C77.4715 210.545 77.2945 210.928 77.0798 211.294L65.9405 210.828C62.9359 210.574 60.7587 212.89 60.6419 215.699C60.5251 218.507 62.7047 220.878 65.513 220.997L74.2636 221.365L74.6265 230.108C74.7384 232.847 76.995 234.989 79.7088 234.989C79.7784 234.989 79.8505 234.989 79.9226 234.984C82.7309 234.87 84.913 232.499 84.7962 229.691L84.3063 217.878C84.5281 217.718 84.7829 217.628 84.9826 217.428L94.7637 207.647C95.2353 207.873 95.7193 208.062 96.2161 208.239V222.081C96.2161 222.524 96.362 222.92 96.4683 223.33L88.2607 230.884C86.193 232.787 86.0588 236.003 87.9625 238.071C89.8662 240.144 93.0796 240.288 95.1547 238.369L101.597 232.444L108.038 238.369C109.017 239.274 110.253 239.716 111.483 239.716C112.857 239.716 114.226 239.164 115.231 238.071C117.134 236.003 117 232.787 114.932 230.884L106.235 222.879C106.279 222.608 106.396 222.364 106.396 222.081V208.239C106.892 208.062 107.376 207.873 107.848 207.647L117.629 217.428C117.942 217.742 118.326 217.919 118.69 218.133L118.228 229.278C118.111 232.086 120.293 234.457 123.102 234.572C123.174 234.577 123.246 234.577 123.315 234.577C126.029 234.577 128.286 232.435 128.398 229.696L128.761 220.953L137.511 220.585C140.319 220.465 142.499 218.095 142.382 215.286C142.265 212.483 140.076 210.172 137.084 210.415L125.276 210.909C125.117 210.687 125.026 210.431 124.826 210.231L115.045 200.45C115.271 199.979 115.46 199.495 115.637 198.998H129.481C129.925 198.998 130.321 198.852 130.731 198.746L138.279 206.951C139.283 208.044 140.652 208.596 142.027 208.596C143.257 208.596 144.492 208.153 145.469 207.254C147.539 205.35 147.673 202.129 145.769 200.062L139.842 193.615L145.769 187.173C147.673 185.105 147.539 181.884 145.471 179.986ZM96.216 193.908C96.216 191.1 98.4999 188.818 101.306 188.818C104.112 188.818 106.396 191.1 106.396 193.908C106.396 196.716 104.112 198.998 101.306 198.998C98.4999 198.998 96.216 196.717 96.216 193.908Z" fill="#1C71DA"/>
<path d="M246.728 117.268L252.655 110.826C254.559 108.758 254.425 105.538 252.357 103.639C250.284 101.725 247.069 101.864 245.165 103.937L237.163 112.632C236.893 112.588 236.649 112.471 236.367 112.471H222.523C222.346 111.975 222.157 111.491 221.931 111.019L231.712 101.238C232.026 100.924 232.203 100.541 232.418 100.176L243.557 100.642C243.632 100.646 243.704 100.646 243.773 100.646C246.487 100.646 248.741 98.5042 248.855 95.7705C248.972 92.9622 246.793 90.5912 243.984 90.4718L235.234 90.104L234.871 81.3608C234.754 78.5525 232.428 76.2661 229.575 76.4848C226.766 76.5991 224.584 78.97 224.701 81.7785L225.191 93.5915C224.969 93.7508 224.715 93.8409 224.515 94.0407L214.734 103.822C214.262 103.596 213.778 103.407 213.281 103.23V89.3882C213.281 88.9449 213.135 88.5488 213.029 88.1391L221.237 80.5854C223.304 78.6817 223.439 75.4658 221.535 73.3981C219.631 71.3304 216.415 71.1862 214.343 73.0998L207.901 79.0246L201.459 73.0998C199.389 71.1862 196.168 71.3304 194.267 73.3981C192.363 75.4658 192.497 78.6817 194.565 80.5854L203.263 88.5904C203.218 88.8607 203.102 89.1051 203.102 89.3882V103.23C202.605 103.407 202.121 103.596 201.649 103.822L191.868 94.0406C191.555 93.7274 191.172 93.5503 190.807 93.3356L191.269 82.1909C191.386 79.3826 189.204 77.0116 186.396 76.8972C183.52 76.6685 181.212 78.9649 181.1 81.7732L180.737 90.5164L171.986 90.8842C169.178 91.0036 166.998 93.3744 167.115 96.1829C167.229 98.9166 169.484 101.059 172.197 101.059C172.267 101.059 172.339 101.059 172.414 101.054L184.221 100.56C184.381 100.782 184.471 101.038 184.671 101.238L194.452 111.019C194.226 111.49 194.037 111.974 193.86 112.471H180.016C179.573 112.471 179.176 112.617 178.766 112.723L171.218 104.518C169.312 102.446 166.096 102.307 164.029 104.215C161.958 106.119 161.824 109.34 163.728 111.407L169.655 117.854L163.728 124.296C161.824 126.364 161.958 129.585 164.026 131.483C165.005 132.388 166.24 132.83 167.471 132.83C168.845 132.83 170.214 132.279 171.218 131.185L179.221 122.49C179.49 122.534 179.734 122.651 180.016 122.651H193.86C194.037 123.147 194.226 123.631 194.452 124.103L184.671 133.884C184.357 134.198 184.18 134.581 183.966 134.947L172.826 134.481C169.802 134.227 167.644 136.543 167.528 139.352C167.411 142.16 169.59 144.531 172.399 144.65L181.149 145.018L181.512 153.761C181.624 156.5 183.881 158.642 186.595 158.642C186.664 158.642 186.736 158.642 186.808 158.637C189.617 158.523 191.799 156.152 191.682 153.344L191.192 141.531C191.414 141.371 191.669 141.281 191.868 141.081L201.649 131.3C202.121 131.526 202.605 131.715 203.102 131.892V145.734C203.102 146.177 203.248 146.573 203.354 146.983L195.146 154.537C193.079 156.44 192.944 159.656 194.848 161.724C196.752 163.797 199.968 163.941 202.04 162.022L208.482 156.097L214.924 162.022C215.903 162.927 217.138 163.369 218.369 163.369C219.743 163.369 221.112 162.817 222.116 161.724C224.02 159.656 223.886 156.44 221.818 154.537L213.12 146.532C213.165 146.261 213.281 146.017 213.281 145.734V131.893C213.778 131.716 214.262 131.526 214.734 131.301L224.515 141.082C224.828 141.395 225.211 141.572 225.576 141.787L225.114 152.931C224.997 155.74 227.179 158.111 229.987 158.225C230.059 158.23 230.131 158.23 230.201 158.23C232.915 158.23 235.172 156.088 235.283 153.349L235.646 144.606L244.397 144.238C247.205 144.119 249.385 141.748 249.268 138.939C249.151 136.136 246.942 133.825 243.969 134.068L232.162 134.562C232.002 134.34 231.912 134.084 231.712 133.884L221.931 124.103C222.157 123.632 222.346 123.148 222.523 122.651H236.367C236.81 122.651 237.207 122.505 237.617 122.399L245.165 130.604C246.169 131.697 247.538 132.249 248.912 132.249C250.143 132.249 251.378 131.807 252.354 130.907C254.425 129.003 254.559 125.782 252.655 123.715L246.728 117.268ZM203.102 117.561C203.102 114.753 205.386 112.471 208.192 112.471C210.998 112.471 213.281 114.753 213.281 117.561C213.281 120.369 210.998 122.651 208.192 122.651C205.386 122.651 203.102 120.369 203.102 117.561Z" fill="#1C71DA"/>
<path d="M59.5261 111.124L65.9679 105.199L72.4097 111.124C73.3889 112.029 74.624 112.471 75.8542 112.471C77.2286 112.471 78.5979 111.92 79.602 110.826C81.5057 108.758 81.3714 105.542 79.3037 103.639L70.606 95.6337C70.6504 95.3631 70.767 95.119 70.767 94.8358V80.9946C71.2637 80.8175 71.7478 80.6284 72.2193 80.4026L82.0004 90.1836C82.3136 90.4968 82.697 90.6739 83.0616 90.8886L82.5994 102.033C82.4825 104.842 84.6645 107.213 87.473 107.327C87.545 107.332 87.6171 107.332 87.6867 107.332C90.4006 107.332 92.6572 105.19 92.769 102.451L93.1319 93.7078L101.883 93.3399C104.691 93.2206 106.87 90.8498 106.754 88.0413C106.634 85.238 104.388 82.9267 101.455 83.1703L89.6479 83.6642C89.4882 83.4418 89.3978 83.1864 89.1977 82.9864L79.4166 73.2053C79.6424 72.7337 79.8317 72.2497 80.0087 71.7529H93.8524C94.296 71.7529 94.6927 71.6072 95.1028 71.5007L102.65 79.7059C103.654 80.7993 105.024 81.351 106.398 81.351C107.628 81.351 108.863 80.9086 109.84 80.009C111.91 78.1053 112.045 74.8844 110.141 72.8167L104.213 66.37L110.141 59.9282C112.045 57.8605 111.91 54.6395 109.843 52.7409C107.772 50.8223 104.551 50.9664 102.65 53.0391L94.6483 61.7342C94.3783 61.69 94.1348 61.5736 93.8524 61.5736H80.0088C79.8317 61.0768 79.6426 60.5928 79.4167 60.1212L89.1978 50.3401C89.5116 50.0264 89.6886 49.643 89.9032 49.2776L101.043 49.7436C101.117 49.7486 101.189 49.7486 101.259 49.7486C103.973 49.7486 106.227 47.6063 106.341 44.8726C106.458 42.0643 104.278 39.6933 101.47 39.5739L92.7193 39.2061L92.3564 30.4629C92.2396 27.6546 89.8736 25.3682 87.0603 25.5869C84.252 25.7012 82.0699 28.0721 82.1867 30.8806L82.6766 42.6936C82.4548 42.8529 82.2001 42.943 82.0003 43.1428L72.2192 52.9239C71.7476 52.698 71.2636 52.5088 70.7668 52.3318V38.4902C70.7668 38.0469 70.6209 37.6508 70.5146 37.241L78.7222 29.6874C80.7899 27.7837 80.9242 24.5678 79.0205 22.5001C77.1168 20.4274 73.9009 20.2882 71.8282 22.2018L65.3864 28.1267L58.9446 22.2018C56.8694 20.2882 53.6585 20.4274 51.7524 22.5001C49.8486 24.5678 49.9829 27.7837 52.0506 29.6874L60.7483 37.6924C60.7039 37.9626 60.5874 38.2071 60.5874 38.4902V52.3315C60.0906 52.5087 59.6066 52.6977 59.135 52.9236L49.3539 43.1425C49.0408 42.8294 48.6574 42.6523 48.2927 42.4376L48.755 31.2928C48.8718 28.4845 46.6898 26.1136 43.8814 25.9992C40.9662 25.7705 38.6996 28.0669 38.5853 30.8752L38.2224 39.6183L29.4717 39.9862C26.6634 40.1056 24.4839 42.4764 24.6007 45.2848C24.7149 48.0186 26.9691 50.1609 29.683 50.1609C29.7526 50.1609 29.8246 50.1609 29.8992 50.1559L41.7064 49.6619C41.8661 49.8844 41.9564 50.1397 42.1565 50.3398L51.9376 60.1208C51.7118 60.5924 51.5226 61.0764 51.3456 61.5732H37.5018C37.0582 61.5732 36.6615 61.7189 36.2514 61.8254L28.7039 53.6204C26.8028 51.5476 23.5844 51.4135 21.5141 53.3172C19.4438 55.2209 19.3097 58.4417 21.2134 60.5094L27.1407 66.9562L21.2134 73.398C19.3097 75.4657 19.4439 78.6865 21.5117 80.5853C22.4908 81.4899 23.726 81.9323 24.9562 81.9323C26.3306 81.9323 27.6999 81.3806 28.7039 80.287L36.7061 71.592C36.9758 71.6361 37.2193 71.7526 37.5017 71.7526H51.3459C51.5231 72.2493 51.7119 72.7334 51.9378 73.2049L42.1567 82.986C41.8429 83.2998 41.6659 83.6832 41.4512 84.0485L30.3119 83.5825C30.2374 83.5776 30.1654 83.5776 30.0958 83.5776C27.3819 83.5776 25.1277 85.7199 25.0135 88.4536C24.8966 91.2619 27.0762 93.6329 29.8845 93.7522L38.6352 94.1201L38.9981 102.863C39.1099 105.602 41.3665 107.744 44.0804 107.744C44.15 107.744 44.222 107.744 44.2941 107.739C47.1024 107.625 49.2846 105.254 49.1678 102.446L48.6779 90.6325C48.8996 90.4732 49.1544 90.3831 49.3542 90.1834L59.1352 80.4023C59.6068 80.6282 60.0909 80.817 60.5876 80.9941V94.836C60.5876 95.2793 60.7336 95.6754 60.8398 96.0851L52.6323 103.639C50.5645 105.542 50.4303 108.758 52.334 110.826C54.2376 112.899 57.4534 113.038 59.5261 111.124ZM60.5874 66.663C60.5874 63.8547 62.8713 61.5732 65.6772 61.5732C68.483 61.5732 70.767 63.8547 70.767 66.663C70.767 69.4713 68.483 71.7528 65.6772 71.7528C62.8713 71.7528 60.5874 69.4714 60.5874 66.663Z" fill="#1C71DA"/>
<path d="M5.08993 151.703C3.78707 151.703 2.48471 151.206 1.49068 150.212C-0.496892 148.225 -0.496892 145.002 1.49068 143.015L19.4858 125.02C21.4746 123.032 24.6967 123.033 26.6843 125.02C28.6719 127.007 28.6719 130.231 26.6843 132.217L8.68918 150.212C7.69515 151.206 6.39228 151.703 5.08993 151.703Z" fill="#FF5D5D"/>
<path d="M23.0851 151.704C21.7822 151.704 20.4798 151.207 19.4858 150.213L1.49068 132.217C-0.496892 130.231 -0.496892 127.007 1.49068 125.02C3.47952 123.032 6.70162 123.033 8.68918 125.02L26.6843 143.016C28.6719 145.003 28.6719 148.226 26.6843 150.213C25.6903 151.207 24.3873 151.704 23.0851 151.704Z" fill="#FF5D5D"/>
<path d="M134.88 49.9071C125.057 49.9071 117.066 41.9157 117.066 32.0928C117.066 22.2698 125.057 14.2784 134.88 14.2784C144.703 14.2784 152.694 22.2698 152.694 32.0928C152.694 41.9157 144.703 49.9071 134.88 49.9071ZM134.88 24.458C130.67 24.458 127.245 27.8827 127.245 32.0928C127.245 36.3028 130.67 39.7275 134.88 39.7275C139.09 39.7275 142.515 36.3028 142.515 32.0928C142.515 27.8827 139.09 24.458 134.88 24.458Z" fill="#67D3E9"/>
<path d="M233.258 211.035C231.907 211.035 230.613 210.498 229.658 209.544L215.262 195.146C213.275 193.16 213.275 189.936 215.262 187.949L229.658 173.553C231.646 171.565 234.869 171.565 236.856 173.553L251.253 187.949C252.208 188.904 252.744 190.198 252.744 191.548C252.744 192.897 252.208 194.192 251.253 195.146L236.857 209.544C235.902 210.498 234.608 211.035 233.258 211.035ZM226.06 191.548L233.258 198.746L240.456 191.548L233.258 184.351L226.06 191.548Z" fill="#FFC504"/>
</svg>
