<svg width="254" height="226" viewBox="0 0 254 226" fill="none" xmlns="http://www.w3.org/2000/svg">
<path d="M65.6771 57.9184C68.4881 57.9184 70.7669 55.6396 70.7669 52.8286C70.7669 50.0176 68.4881 47.7388 65.6771 47.7388C62.8661 47.7388 60.5873 50.0176 60.5873 52.8286C60.5873 55.6396 62.8661 57.9184 65.6771 57.9184Z" fill="white"/>
<path d="M101.306 185.163C104.117 185.163 106.396 182.885 106.396 180.074C106.396 177.263 104.117 174.984 101.306 174.984C98.4948 174.984 96.216 177.263 96.216 180.074C96.216 182.885 98.4948 185.163 101.306 185.163Z" fill="white"/>
<path d="M208.192 108.816C211.003 108.816 213.281 106.538 213.281 103.727C213.281 100.916 211.003 98.6368 208.192 98.6368C205.381 98.6368 203.102 100.916 203.102 103.727C203.102 106.538 205.381 108.816 208.192 108.816Z" fill="white"/>
<path d="M145.471 166.151C143.399 164.238 140.183 164.377 138.279 166.45L130.277 175.145C130.007 175.1 129.764 174.984 129.481 174.984H115.637C115.46 174.487 115.271 174.003 115.045 173.532L124.826 163.751C125.14 163.437 125.317 163.053 125.532 162.688L136.671 163.154C136.746 163.159 136.818 163.159 136.887 163.159C139.601 163.159 141.855 161.017 141.97 158.283C142.086 155.475 139.907 153.104 137.099 152.984L128.348 152.616L127.985 143.873C127.871 141.065 125.562 138.779 122.689 138.997C119.881 139.112 117.699 141.483 117.815 144.291L118.305 156.104C118.083 156.263 117.829 156.353 117.629 156.553L107.848 166.334C107.376 166.108 106.892 165.919 106.395 165.742V151.901C106.395 151.458 106.249 151.061 106.143 150.652L114.351 143.098C116.419 141.194 116.553 137.978 114.649 135.911C112.748 133.838 109.529 133.699 107.457 135.612L101.015 141.537L94.5732 135.612C92.5005 133.699 89.2821 133.838 87.381 135.911C85.4773 137.978 85.6115 141.194 87.6792 143.098L96.3769 151.103C96.3325 151.373 96.216 151.618 96.216 151.901V165.742C95.7192 165.919 95.2352 166.108 94.7636 166.334L84.9825 156.553C84.6694 156.24 84.286 156.063 83.9213 155.848L84.3836 144.703C84.5004 141.895 82.3184 139.524 79.51 139.41C76.5549 139.181 74.3282 141.478 74.2139 144.286L73.851 153.029L65.1003 153.397C62.292 153.516 60.1125 155.887 60.2293 158.695C60.3435 161.429 62.5977 163.571 65.3116 163.571C65.3812 163.571 65.4532 163.572 65.5278 163.567L77.335 163.073C77.4947 163.295 77.585 163.55 77.7852 163.75L87.5662 173.531C87.3404 174.003 87.1512 174.487 86.9742 174.984H73.1304C72.6868 174.984 72.2901 175.13 71.88 175.236L64.3325 167.031C62.4264 164.958 59.2104 164.824 57.1427 166.728C55.0724 168.632 54.9383 171.852 56.842 173.92L62.7693 180.367L56.842 186.809C54.9383 188.876 55.0725 192.097 57.1403 193.996C58.1194 194.901 59.3546 195.343 60.5848 195.343C61.9592 195.343 63.3285 194.791 64.3325 193.698L72.3347 185.003C72.6044 185.047 72.8479 185.163 73.1303 185.163H86.9745C87.1517 185.66 87.3405 186.144 87.5664 186.616L77.7853 196.397C77.4715 196.71 77.2945 197.094 77.0798 197.459L65.9405 196.993C62.9359 196.74 60.7587 199.056 60.6419 201.864C60.5251 204.673 62.7047 207.044 65.513 207.163L74.2636 207.531L74.6265 216.274C74.7384 219.013 76.995 221.155 79.7088 221.155C79.7784 221.155 79.8505 221.155 79.9226 221.15C82.7309 221.036 84.913 218.665 84.7962 215.856L84.3063 204.043C84.5281 203.884 84.7829 203.794 84.9826 203.594L94.7637 193.813C95.2353 194.039 95.7193 194.228 96.2161 194.405V208.246C96.2161 208.69 96.362 209.086 96.4683 209.496L88.2607 217.049C86.193 218.953 86.0588 222.169 87.9625 224.237C89.8662 226.309 93.0796 226.453 95.1547 224.535L101.597 218.61L108.038 224.535C109.017 225.439 110.253 225.882 111.483 225.882C112.857 225.882 114.226 225.33 115.231 224.237C117.134 222.169 117 218.953 114.932 217.049L106.235 209.044C106.279 208.774 106.396 208.53 106.396 208.246V194.405C106.892 194.228 107.376 194.039 107.848 193.813L117.629 203.594C117.942 203.907 118.326 204.084 118.69 204.299L118.228 215.444C118.111 218.252 120.293 220.623 123.102 220.737C123.174 220.742 123.246 220.742 123.315 220.742C126.029 220.742 128.286 218.6 128.398 215.861L128.761 207.118L137.511 206.75C140.32 206.631 142.499 204.26 142.382 201.452C142.265 198.648 140.076 196.337 137.084 196.581L125.276 197.075C125.117 196.852 125.026 196.597 124.826 196.397L115.045 186.616C115.271 186.144 115.46 185.66 115.637 185.163H129.481C129.925 185.163 130.321 185.018 130.731 184.911L138.279 193.116C139.283 194.21 140.652 194.761 142.027 194.761C143.257 194.761 144.492 194.319 145.469 193.419C147.539 191.516 147.673 188.295 145.769 186.227L139.842 179.78L145.769 173.339C147.673 171.271 147.539 168.05 145.471 166.151ZM96.216 180.074C96.216 177.265 98.4999 174.984 101.306 174.984C104.112 174.984 106.396 177.265 106.396 180.074C106.396 182.882 104.112 185.163 101.306 185.163C98.4999 185.163 96.216 182.882 96.216 180.074Z" fill="#1C71DA"/>
<path d="M246.728 103.433L252.655 96.9916C254.559 94.9239 254.425 91.7031 252.357 89.8043C250.284 87.8907 247.069 88.0299 245.165 90.1026L237.163 98.7976C236.893 98.7535 236.649 98.637 236.367 98.637H222.523C222.346 98.1403 222.157 97.6562 221.931 97.1846L231.712 87.4036C232.026 87.0898 232.203 86.7064 232.418 86.3411L243.557 86.807C243.632 86.812 243.704 86.812 243.773 86.812C246.487 86.812 248.741 84.6697 248.855 81.936C248.972 79.1277 246.793 76.7567 243.984 76.6374L235.234 76.2695L234.871 67.5264C234.754 64.7181 232.428 62.4316 229.575 62.6503C226.767 62.7646 224.584 65.1356 224.701 67.944L225.191 79.757C224.969 79.9163 224.715 80.0064 224.515 80.2062L214.734 89.9873C214.262 89.7614 213.778 89.5722 213.281 89.3952V75.5537C213.281 75.1104 213.135 74.7143 213.029 74.3046L221.237 66.7509C223.304 64.8472 223.439 61.6314 221.535 59.5636C219.631 57.4959 216.415 57.3517 214.343 59.2654L207.901 65.1901L201.459 59.2654C199.389 57.3517 196.168 57.4959 194.267 59.5636C192.363 61.6314 192.497 64.8472 194.565 66.7509L203.263 74.7559C203.218 75.0262 203.102 75.2706 203.102 75.5537V89.3951C202.605 89.5722 202.121 89.7613 201.649 89.9872L191.868 80.2061C191.555 79.8929 191.172 79.7158 190.807 79.5011L191.269 68.3564C191.386 65.5481 189.204 63.1771 186.396 63.0627C183.52 62.8341 181.212 65.1305 181.1 67.9388L180.737 76.6819L171.986 77.0498C169.178 77.1691 166.998 79.54 167.115 82.3484C167.229 85.0821 169.484 87.2244 172.197 87.2244C172.267 87.2244 172.339 87.2244 172.414 87.2195L184.221 86.7255C184.381 86.9479 184.471 87.2033 184.671 87.4033L194.452 97.1844C194.226 97.656 194.037 98.14 193.86 98.6368H180.016C179.573 98.6368 179.176 98.7825 178.766 98.889L171.218 90.6839C169.312 88.6111 166.096 88.4721 164.029 90.3807C161.958 92.2844 161.824 95.5053 163.728 97.573L169.655 104.02L163.728 110.462C161.824 112.529 161.958 115.75 164.026 117.649C165.005 118.553 166.24 118.996 167.471 118.996C168.845 118.996 170.214 118.444 171.218 117.351L179.221 108.656C179.49 108.7 179.734 108.816 180.016 108.816H193.86C194.037 109.313 194.226 109.797 194.452 110.269L184.671 120.05C184.357 120.363 184.18 120.747 183.966 121.112L172.826 120.646C169.802 120.393 167.644 122.709 167.528 125.517C167.411 128.325 169.59 130.696 172.399 130.816L181.149 131.184L181.512 139.927C181.624 142.665 183.881 144.808 186.595 144.808C186.664 144.808 186.736 144.808 186.808 144.803C189.617 144.689 191.799 142.318 191.682 139.509L191.192 127.696C191.414 127.537 191.669 127.447 191.868 127.247L201.649 117.466C202.121 117.692 202.605 117.881 203.102 118.058V131.899C203.102 132.343 203.248 132.739 203.354 133.148L195.146 140.702C193.079 142.606 192.944 145.822 194.848 147.889C196.752 149.962 199.968 150.106 202.04 148.188L208.482 142.263L214.924 148.188C215.903 149.092 217.138 149.535 218.369 149.535C219.743 149.535 221.112 148.983 222.116 147.889C224.02 145.822 223.886 142.606 221.818 140.702L213.12 132.697C213.165 132.427 213.281 132.182 213.281 131.899V118.058C213.778 117.881 214.262 117.692 214.734 117.466L224.515 127.247C224.828 127.56 225.211 127.737 225.576 127.952L225.114 139.097C224.997 141.905 227.179 144.276 229.987 144.391C230.059 144.396 230.132 144.395 230.201 144.395C232.915 144.395 235.172 142.253 235.283 139.515L235.646 130.771L244.397 130.404C247.205 130.284 249.385 127.913 249.268 125.105C249.151 122.302 246.942 119.99 243.969 120.234L232.162 120.728C232.003 120.505 231.912 120.25 231.712 120.05L221.931 110.269C222.157 109.797 222.346 109.313 222.523 108.817H236.367C236.81 108.817 237.207 108.671 237.617 108.564L245.165 116.769C246.169 117.863 247.538 118.415 248.912 118.415C250.143 118.415 251.378 117.972 252.354 117.073C254.425 115.169 254.559 111.948 252.655 109.88L246.728 103.433ZM203.102 103.727C203.102 100.918 205.386 98.6368 208.192 98.6368C210.998 98.6368 213.281 100.918 213.281 103.727C213.281 106.535 210.998 108.816 208.192 108.816C205.386 108.816 203.102 106.535 203.102 103.727Z" fill="#1C71DA"/>
<path d="M59.5261 97.2898L65.9679 91.365L72.4097 97.2898C73.3889 98.1944 74.624 98.6368 75.8542 98.6368C77.2286 98.6368 78.5979 98.085 79.602 96.9915C81.5057 94.9238 81.3715 91.7079 79.3037 89.8042L70.606 81.7992C70.6504 81.5287 70.767 81.2845 70.767 81.0014V67.1602C71.2637 66.983 71.7478 66.794 72.2193 66.5681L82.0004 76.3492C82.3136 76.6623 82.697 76.8394 83.0617 77.0541L82.5994 88.1989C82.4826 91.0072 84.6646 93.3781 87.473 93.4925C87.545 93.4975 87.6171 93.4975 87.6868 93.4975C90.4006 93.4975 92.6572 91.3552 92.769 88.6165L93.132 79.8734L101.883 79.5055C104.691 79.3861 106.87 77.0153 106.754 74.2069C106.634 71.4035 104.388 69.0923 101.455 69.3358L89.6479 69.8298C89.4882 69.6073 89.3978 69.352 89.1977 69.1519L79.4166 59.3709C79.6424 58.8993 79.8317 58.4152 80.0087 57.9185H93.8524C94.296 57.9185 94.6927 57.7728 95.1029 57.6663L102.65 65.8714C103.654 66.9648 105.024 67.5166 106.398 67.5166C107.628 67.5166 108.863 67.0741 109.84 66.1745C111.91 64.2708 112.045 61.05 110.141 58.9822L104.213 52.5355L110.141 46.0937C112.045 44.026 111.91 40.805 109.843 38.9064C107.772 36.9878 104.551 37.132 102.65 39.2047L94.6483 47.8997C94.3783 47.8556 94.1348 47.7391 93.8524 47.7391H80.0088C79.8317 47.2424 79.6426 46.7583 79.4167 46.2868L89.1978 36.5057C89.5116 36.1919 89.6886 35.8085 89.9032 35.4432L101.043 35.9092C101.117 35.9141 101.189 35.9141 101.259 35.9141C103.973 35.9141 106.227 33.7718 106.341 31.0381C106.458 28.2298 104.278 25.8588 101.47 25.7395L92.7193 25.3716L92.3564 16.6285C92.2396 13.8202 89.8736 11.5337 87.0603 11.7524C84.252 11.8667 82.0699 14.2377 82.1867 17.0461L82.6766 28.8591C82.4548 29.0184 82.2001 29.1085 82.0003 29.3083L72.2192 39.0894C71.7477 38.8635 71.2636 38.6743 70.7668 38.4973V24.6557C70.7668 24.2124 70.6209 23.8163 70.5146 23.4066L78.7222 15.8529C80.7899 13.9492 80.9242 10.7333 79.0205 8.66559C77.1168 6.5929 73.9009 6.45369 71.8282 8.36733L65.3864 14.2922L58.9446 8.36733C56.8694 6.45369 53.6585 6.5929 51.7524 8.66559C49.8486 10.7333 49.9829 13.9492 52.0506 15.8529L60.7483 23.8579C60.7039 24.1282 60.5874 24.3726 60.5874 24.6557V38.4971C60.0906 38.6742 59.6066 38.8633 59.135 39.0891L49.3539 29.3081C49.0408 28.9949 48.6574 28.8178 48.2927 28.6031L48.755 17.4584C48.8718 14.6501 46.6898 12.2791 43.8814 12.1647C40.9662 11.936 38.6996 14.2324 38.5853 17.0407L38.2224 25.7839L29.4717 26.1517C26.6634 26.2711 24.4839 28.6419 24.6007 31.4504C24.7149 34.1841 26.9691 36.3264 29.683 36.3264C29.7526 36.3264 29.8246 36.3264 29.8992 36.3214L41.7064 35.8275C41.8661 36.0499 41.9564 36.3053 42.1566 36.5053L51.9376 46.2864C51.7118 46.7579 51.5226 47.242 51.3456 47.7387H37.5018C37.0582 47.7387 36.6615 47.8844 36.2514 47.9909L28.7039 39.7859C26.8028 37.7131 23.5844 37.579 21.5141 39.4827C19.4438 41.3864 19.3097 44.6072 21.2134 46.675L27.1407 53.1217L21.2134 59.5635C19.3097 61.6312 19.4439 64.8521 21.5117 66.7508C22.4908 67.6554 23.726 68.0978 24.9562 68.0978C26.3306 68.0978 27.6999 67.5461 28.7039 66.4526L36.7061 57.7575C36.9758 57.8017 37.2193 57.9181 37.5017 57.9181H51.3459C51.5231 58.4149 51.7119 58.8989 51.9378 59.3705L42.1567 69.1516C41.8429 69.4653 41.6659 69.8487 41.4512 70.214L30.3119 69.7481C30.2374 69.7431 30.1654 69.7431 30.0958 69.7431C27.3819 69.7431 25.1277 71.8854 25.0135 74.6191C24.8966 77.4274 27.0762 79.7984 29.8845 79.9178L38.6352 80.2856L38.9981 89.0288C39.1099 91.7675 41.3665 93.9098 44.0804 93.9098C44.15 93.9098 44.222 93.9098 44.2941 93.9048C47.1024 93.7905 49.2846 91.4196 49.1678 88.6111L48.6779 76.7981C48.8996 76.6388 49.1544 76.5487 49.3542 76.3489L59.1352 66.5678C59.6068 66.7937 60.0909 66.9825 60.5876 67.1597V81.0015C60.5876 81.4448 60.7336 81.8409 60.8398 82.2507L52.6323 89.8043C50.5645 91.708 50.4303 94.9239 52.334 96.9916C54.2376 99.0643 57.4534 99.2034 59.5261 97.2898ZM60.5874 52.8286C60.5874 50.0203 62.8713 47.7387 65.6772 47.7387C68.4831 47.7387 70.767 50.0203 70.767 52.8286C70.767 55.6369 68.4831 57.9184 65.6772 57.9184C62.8713 57.9184 60.5874 55.637 60.5874 52.8286Z" fill="#1C71DA"/>
<path d="M5.08993 137.869C3.78707 137.869 2.48471 137.372 1.49068 136.378C-0.496892 134.391 -0.496892 131.167 1.49068 129.18L19.4858 111.186C21.4746 109.198 24.6967 109.199 26.6843 111.186C28.6719 113.173 28.6719 116.396 26.6843 118.383L8.68919 136.378C7.69515 137.372 6.39228 137.869 5.08993 137.869Z" fill="#FF5D5D"/>
<path d="M23.0851 137.87C21.7822 137.87 20.4798 137.373 19.4858 136.379L1.49068 118.383C-0.496892 116.396 -0.496892 113.173 1.49068 111.186C3.47952 109.198 6.70162 109.199 8.68919 111.186L26.6843 129.182C28.6719 131.169 28.6719 134.392 26.6843 136.379C25.6903 137.373 24.3873 137.87 23.0851 137.87Z" fill="#FF5D5D"/>
<path d="M134.88 36.0727C125.057 36.0727 117.066 28.0813 117.066 18.2584C117.066 8.43547 125.057 0.444092 134.88 0.444092C144.703 0.444092 152.694 8.43547 152.694 18.2584C152.694 28.0813 144.703 36.0727 134.88 36.0727ZM134.88 10.6237C130.67 10.6237 127.245 14.0484 127.245 18.2584C127.245 22.4684 130.67 25.8931 134.88 25.8931C139.09 25.8931 142.515 22.4684 142.515 18.2584C142.515 14.0484 139.09 10.6237 134.88 10.6237Z" fill="#000749"/>
<path d="M233.258 197.2C231.908 197.2 230.613 196.664 229.658 195.709L215.262 181.312C213.275 179.325 213.275 176.102 215.262 174.115L229.658 159.719C231.647 157.731 234.869 157.731 236.856 159.719L251.253 174.115C252.208 175.069 252.744 176.364 252.744 177.713C252.744 179.063 252.208 180.358 251.253 181.312L236.857 195.709C235.903 196.664 234.608 197.2 233.258 197.2ZM226.06 177.714L233.258 184.912L240.456 177.714L233.258 170.516L226.06 177.714Z" fill="#FFC504"/>
</svg>
