<svg width="1593" height="334" viewBox="0 0 1593 334" fill="none" xmlns="http://www.w3.org/2000/svg">
<g filter="url(#filter0_d_626_191)">
<path d="M374.424 151.68L296.487 143.408H375.711C375.098 145.859 374.669 148.616 374.424 151.68ZM380.674 125.762L377.917 133.849L301.633 125.762H380.674ZM374.424 161.054C374.669 164.363 375.16 167.12 375.895 169.326L298.141 161.054H374.424ZM400.159 186.972L302.92 178.7H382.145C386.189 182.622 392.193 185.379 400.159 186.972ZM394.46 108.115C391.642 109.953 388.946 112.466 386.372 115.652L315.42 108.115H394.46ZM299.795 196.347H368.542L365.785 204.435L299.795 196.347ZM296.67 214.177H362.66L359.903 222.265L296.67 214.177ZM376.446 190.648C386.74 193.467 396.115 194.876 404.57 194.876C413.148 194.876 420.133 194.509 425.525 193.773L426.996 184.583L411.739 183.112C400.097 182.009 391.826 179.374 386.924 175.208C382.145 171.041 379.755 165.159 379.755 157.562C379.755 154.253 380.123 150.577 380.858 146.533C383.676 130.847 388.823 120.063 396.298 114.181C403.774 108.299 415.231 105.358 430.672 105.358C446.235 105.358 459.96 106.89 471.847 109.953L462.288 139.364C451.627 137.526 443.049 136.607 436.554 136.607C430.182 136.607 424.667 136.913 420.011 137.526L418.54 146.533L430.856 147.819C443.355 149.167 452.24 152.17 457.509 156.826C462.778 161.361 465.413 167.488 465.413 175.208C465.413 183.051 463.759 191.139 460.45 199.472C458.612 203.761 456.651 207.376 454.568 210.317C452.607 213.135 450.034 215.586 446.848 217.669C443.784 219.63 440.966 221.162 438.392 222.265C435.819 223.245 432.51 223.98 428.466 224.471C422.829 225.328 415.844 225.757 407.511 225.757C392.316 225.757 378.53 224.164 366.153 220.978L376.446 190.648ZM556.007 176.495L556.191 173.002H554.72L546.081 223H511.156L531.376 108.115H566.3L558.029 154.988H559.499C560.48 151.067 561.583 148.126 562.808 146.165L585.969 108.115H623.651L587.623 164.547L604.35 223H566.668L556.558 181.825C556.191 180.6 556.007 178.823 556.007 176.495ZM505.641 222.449L427.704 214.177H507.112L505.641 222.449ZM511.891 186.972L433.953 178.7H513.362L511.891 186.972ZM515.016 169.326L437.078 161.054H516.486L515.016 169.326ZM518.141 151.68L440.203 143.408H519.611L518.141 151.68ZM521.266 134.033L443.328 125.762H522.552L521.266 134.033ZM508.766 204.618L430.828 196.347H510.237L508.766 204.618ZM524.207 116.387L446.453 108.115H525.677L524.207 116.387ZM658.297 222.449L580.543 214.177H659.768L658.297 222.449ZM661.422 204.618L583.668 196.347H662.709L661.422 204.618ZM662.709 186.972L584.771 178.7H661.054L662.709 186.972ZM659.216 169.326L581.279 161.054H657.562L659.216 169.326ZM650.577 125.762L652.231 134.033L574.477 125.762H650.577ZM654.069 143.408L655.724 151.68L577.97 143.408H654.069ZM648.923 116.387L571.169 108.115H647.268L648.923 116.387ZM691.384 108.115L693.774 148.555H695.06L711.971 108.115H750.573L704.251 191.751L698.92 223H663.995L669.326 191.751L652.783 108.115H691.384ZM783.162 151.68L705.225 143.408H784.449C783.836 145.859 783.408 148.616 783.162 151.68ZM789.412 125.762L786.655 133.849L710.372 125.762H789.412ZM783.162 161.054C783.408 164.363 783.898 167.12 784.633 169.326L706.879 161.054H783.162ZM808.897 186.972L711.658 178.7H790.883C794.927 182.622 800.931 185.379 808.897 186.972ZM803.198 108.115C800.38 109.953 797.684 112.466 795.11 115.652L724.158 108.115H803.198ZM708.533 196.347H777.28L774.523 204.435L708.533 196.347ZM705.409 214.177H771.398L768.641 222.265L705.409 214.177ZM785.184 190.648C795.478 193.467 804.853 194.876 813.308 194.876C821.886 194.876 828.871 194.509 834.263 193.773L835.734 184.583L820.477 183.112C808.835 182.009 800.564 179.374 795.662 175.208C790.883 171.041 788.493 165.159 788.493 157.562C788.493 154.253 788.861 150.577 789.596 146.533C792.415 130.847 797.561 120.063 805.037 114.181C812.512 108.299 823.97 105.358 839.41 105.358C854.973 105.358 868.698 106.89 880.585 109.953L871.026 139.364C860.365 137.526 851.787 136.607 845.292 136.607C838.92 136.607 833.405 136.913 828.749 137.526L827.278 146.533L839.594 147.819C852.093 149.167 860.978 152.17 866.247 156.826C871.516 161.361 874.151 167.488 874.151 175.208C874.151 183.051 872.497 191.139 869.188 199.472C867.35 203.761 865.389 207.376 863.306 210.317C861.345 213.135 858.772 215.586 855.586 217.669C852.522 219.63 849.704 221.162 847.13 222.265C844.557 223.245 841.248 223.98 837.204 224.471C831.567 225.328 824.582 225.757 816.249 225.757C801.054 225.757 787.268 224.164 774.891 220.978L785.184 190.648ZM917.688 164.73C917.443 165.711 917.198 167.059 916.953 168.774L844.713 161.054H918.24L917.688 164.73ZM915.666 178.7C915.299 181.519 915.115 184.092 915.115 186.421L842.691 178.7H915.666ZM922.651 143.408L920.445 150.944L849.125 143.408H922.651ZM915.299 196.347C915.789 199.778 916.218 202.351 916.585 204.067L845.081 196.347H915.299ZM930.188 125.762C928.472 128.948 927.247 131.399 926.511 133.114L857.764 125.762H930.188ZM920.813 214.177C922.406 216.995 924.244 219.262 926.327 220.978L862.727 214.177H920.813ZM947.65 108.115C944.096 110.321 941.339 112.343 939.378 114.181L883.131 108.115H947.65ZM963.826 225.757C948.385 225.757 937.295 222.755 930.555 216.75C923.938 210.746 920.629 201.494 920.629 188.994C920.629 183.725 921.487 175.943 923.203 165.65C926.879 144.572 933.19 129.254 942.136 119.696C951.204 110.137 965.48 105.358 984.965 105.358C989.499 105.358 994.646 105.848 1000.41 106.829C1006.29 107.686 1010.58 108.789 1013.27 110.137L1002.98 138.261C995.748 136.545 988.947 135.688 982.575 135.688C976.325 135.688 971.852 136.3 969.156 137.526C966.461 138.751 964.806 141.202 964.193 144.878L955.738 193.038C960.15 194.018 964.684 194.509 969.34 194.509C979.266 194.509 988.335 193.038 996.545 190.097L993.604 220.978C985.761 224.164 975.835 225.757 963.826 225.757ZM1310.06 195.244H1287.27L1282.49 223H1247.57L1267.79 108.115H1322.93C1343.76 108.115 1354.18 117.796 1354.18 137.158C1354.18 146.349 1352.89 154.682 1350.32 162.157C1347.75 169.51 1344.87 175.392 1341.68 179.803C1338.62 184.092 1334.33 187.769 1328.81 190.832C1323.42 193.773 1317.17 195.244 1310.06 195.244ZM1300.51 165.833C1304.67 165.833 1307.8 165.404 1309.88 164.547C1312.09 163.566 1313.5 161.422 1314.11 158.113C1315.7 149.045 1316.5 144.082 1316.5 143.224C1316.5 140.896 1315.58 139.364 1313.74 138.629C1311.9 137.893 1309.14 137.526 1305.47 137.526H1297.38L1292.42 165.833H1300.51ZM1242.05 222.449L1164.11 214.177H1243.52L1242.05 222.449ZM1248.3 186.972L1170.36 178.7H1249.77L1248.3 186.972ZM1254.37 151.68L1176.61 143.408H1255.84L1254.37 151.68ZM1257.49 134.033L1179.74 125.762H1258.96L1257.49 134.033ZM1245.18 204.618L1167.24 196.347H1246.65L1245.18 204.618ZM1260.62 116.387L1182.86 108.115H1262.09L1260.62 116.387ZM1251.24 169.326L1173.49 161.054H1252.71L1251.24 169.326ZM1466.23 179.62H1431.3L1428.91 193.59H1471.74L1466.59 223H1388.84L1409.06 108.115H1485.89L1476.34 137.526H1438.65L1436.08 152.966H1471L1466.23 179.62ZM1383.32 222.449L1305.39 214.177H1384.8L1383.32 222.449ZM1389.57 186.972L1311.64 178.7H1391.04L1389.57 186.972ZM1392.7 169.326L1314.76 161.054H1394.17L1392.7 169.326ZM1395.82 151.68L1317.89 143.408H1397.29L1395.82 151.68ZM1398.95 134.033L1321.01 125.762H1400.24L1398.95 134.033ZM1386.45 204.618L1308.51 196.347H1387.92L1386.45 204.618ZM1401.89 116.387L1324.14 108.115H1403.36L1401.89 116.387Z" fill="#000749"/>
</g>
<rect x="1059.82" y="225.225" width="138.225" height="3.0296" rx="1.5148" transform="rotate(-60.1544 1059.82 225.225)" fill="#091C4A"/>
<rect x="1071.28" y="207.268" width="3.0296" height="16.1929" rx="1.5148" transform="rotate(-15 1071.28 207.268)" fill="#091C4A"/>
<rect x="1065.63" y="216.195" width="3.0296" height="11.7989" rx="1.17989" transform="rotate(-15 1065.63 216.195)" fill="#091C4A"/>
<rect x="1071.38" y="205.146" width="3.0296" height="16.1929" rx="1.5148" transform="rotate(75 1071.38 205.146)" fill="#091C4A"/>
<rect x="1066.48" y="214.16" width="3.0296" height="11.7989" rx="1.17989" transform="rotate(75 1066.48 214.16)" fill="#091C4A"/>
<rect x="1120.33" y="123.869" width="3.0296" height="16.1929" rx="1.5148" transform="rotate(165 1120.33 123.869)" fill="#091C4A"/>
<rect x="1125.97" y="114.941" width="3.0296" height="11.7989" rx="1.17989" transform="rotate(165 1125.97 114.941)" fill="#091C4A"/>
<rect x="1120.23" y="125.99" width="3.0296" height="16.1929" rx="1.5148" transform="rotate(-105 1120.23 125.99)" fill="#091C4A"/>
<rect x="1125.13" y="116.977" width="3.0296" height="11.7989" rx="1.17989" transform="rotate(-105 1125.13 116.977)" fill="#091C4A"/>
<rect x="1127.96" y="227.176" width="138.225" height="3.0296" rx="1.5148" transform="rotate(-119.371 1127.96 227.176)" fill="#091C4A"/>
<rect x="1118.4" y="208.143" width="3.0296" height="16.1929" rx="1.5148" transform="rotate(-74.2165 1118.4 208.143)" fill="#091C4A"/>
<rect x="1123.18" y="217.561" width="3.0296" height="11.7989" rx="1.17989" transform="rotate(-74.2165 1123.18 217.561)" fill="#091C4A"/>
<rect x="1116.63" y="206.965" width="3.0296" height="16.1929" rx="1.5148" transform="rotate(15.7835 1116.63 206.965)" fill="#091C4A"/>
<rect x="1121.87" y="215.791" width="3.0296" height="11.7989" rx="1.17989" transform="rotate(15.7835 1121.87 215.791)" fill="#091C4A"/>
<rect x="1071.86" y="123.316" width="3.0296" height="16.1929" rx="1.5148" transform="rotate(105.784 1071.86 123.316)" fill="#091C4A"/>
<rect x="1067.07" y="113.898" width="3.0296" height="11.7989" rx="1.17989" transform="rotate(105.784 1067.07 113.898)" fill="#091C4A"/>
<rect x="1073.62" y="124.49" width="3.0296" height="16.1929" rx="1.5148" transform="rotate(-164.216 1073.62 124.49)" fill="#091C4A"/>
<rect x="1068.39" y="115.666" width="3.0296" height="11.7989" rx="1.17989" transform="rotate(-164.216 1068.39 115.666)" fill="#091C4A"/>
<rect x="1165.11" y="167.369" width="138.225" height="3.0296" rx="1.5148" transform="rotate(179.846 1165.11 167.369)" fill="#091C4A"/>
<rect x="1143.83" y="166.428" width="3.0296" height="16.1929" rx="1.5148" transform="rotate(-135 1143.83 166.428)" fill="#091C4A"/>
<rect x="1154.39" y="166.852" width="3.0296" height="11.7989" rx="1.17989" transform="rotate(-135 1154.39 166.852)" fill="#091C4A"/>
<rect x="1141.94" y="167.398" width="3.0296" height="16.1929" rx="1.5148" transform="rotate(-45 1141.94 167.398)" fill="#091C4A"/>
<rect x="1152.2" y="167.137" width="3.0296" height="11.7989" rx="1.17989" transform="rotate(-45 1152.2 167.137)" fill="#091C4A"/>
<rect x="1047.08" y="165.643" width="3.0296" height="16.1929" rx="1.5148" transform="rotate(45 1047.08 165.643)" fill="#091C4A"/>
<rect x="1036.52" y="165.219" width="3.0296" height="11.7989" rx="1.17989" transform="rotate(45 1036.52 165.219)" fill="#091C4A"/>
<rect x="1048.97" y="164.672" width="3.0296" height="16.1929" rx="1.5148" transform="rotate(135 1048.97 164.672)" fill="#091C4A"/>
<rect x="1038.71" y="164.934" width="3.0296" height="11.7989" rx="1.17989" transform="rotate(135 1038.71 164.934)" fill="#091C4A"/>
<path d="M1095.41 106.211L1112.93 134.262L1113.36 134.946L1114.16 134.973L1147.21 136.119L1131.68 165.315L1131.3 166.026L1131.68 166.738L1147.21 195.934L1114.16 197.079L1113.36 197.107L1112.93 197.791L1095.41 225.841L1077.9 197.791L1077.47 197.107L1076.66 197.079L1043.61 195.934L1059.15 166.738L1059.52 166.026L1059.15 165.315L1043.61 136.119L1076.66 134.973L1077.47 134.946L1077.9 134.262L1095.41 106.211Z" fill="#091C4A" stroke="#091C4A" stroke-width="3.0296"/>
<path d="M1112.37 135.666L1113.25 154.521L1113.29 155.326L1113.98 155.745L1130.11 165.552L1114.22 175.741L1113.54 176.176L1113.52 176.982L1113.09 195.853L1096.32 187.186L1095.6 186.816L1094.9 187.203L1078.34 196.267L1077.46 177.411L1077.42 176.606L1076.74 176.188L1060.61 166.381L1076.5 156.192L1077.18 155.757L1077.19 154.951L1077.62 136.08L1094.39 144.747L1095.11 145.117L1095.82 144.73L1112.37 135.666Z" fill="#091C4A" stroke="#091C4A" stroke-width="3.0296"/>
<path d="M1094.99 146.277L1100.66 154.959L1101.1 155.633L1101.91 155.645L1112.27 155.795L1107.59 165.045L1107.23 165.764L1107.62 166.468L1112.67 175.521L1102.32 176.089L1101.51 176.133L1101.1 176.825L1095.79 185.729L1090.12 177.047L1089.68 176.372L1088.87 176.36L1078.51 176.21L1083.19 166.96L1083.55 166.241L1083.16 165.538L1078.11 156.484L1088.46 155.916L1089.27 155.872L1089.68 155.18L1094.99 146.277Z" stroke="#091C4A" stroke-width="3.0296"/>
<path d="M1100.55 156.585L1100.85 161.853L1100.9 162.658L1101.59 163.068L1106.13 165.757L1101.73 168.657L1101.05 169.1L1101.04 169.906L1100.99 175.183L1096.27 172.815L1095.55 172.453L1094.85 172.848L1090.25 175.436L1089.94 170.168L1089.89 169.364L1089.2 168.953L1084.66 166.264L1089.07 163.364L1089.74 162.921L1089.75 162.115L1089.81 156.838L1094.52 159.206L1095.24 159.568L1095.95 159.173L1100.55 156.585Z" stroke="#091C4A" stroke-width="3.0296"/>
<circle cx="159.798" cy="162.799" r="101.649" transform="rotate(-180 159.798 162.799)" fill="#FFB800" stroke="#091C4A" stroke-width="8.29778"/>
<rect x="130.835" y="216.701" width="114.978" height="2.52006" rx="1.26003" transform="rotate(-60.1544 130.835 216.701)" fill="#091C4A"/>
<rect x="140.365" y="201.764" width="2.52006" height="13.4695" rx="1.26003" transform="rotate(-15 140.365 201.764)" fill="#091C4A"/>
<rect x="135.671" y="209.191" width="2.52006" height="9.81448" rx="0.981449" transform="rotate(-15 135.671 209.191)" fill="#091C4A"/>
<rect x="140.449" y="200.002" width="2.52006" height="13.4695" rx="1.26003" transform="rotate(75 140.449 200.002)" fill="#091C4A"/>
<rect x="136.376" y="207.5" width="2.52006" height="9.81448" rx="0.981449" transform="rotate(75 136.376 207.5)" fill="#091C4A"/>
<rect x="181.167" y="132.396" width="2.52006" height="13.4695" rx="1.26003" transform="rotate(165 181.167 132.396)" fill="#091C4A"/>
<rect x="185.861" y="124.969" width="2.52006" height="9.81448" rx="0.981449" transform="rotate(165 185.861 124.969)" fill="#091C4A"/>
<rect x="181.083" y="134.158" width="2.52006" height="13.4695" rx="1.26003" transform="rotate(-105 181.083 134.158)" fill="#091C4A"/>
<rect x="185.158" y="126.66" width="2.52006" height="9.81448" rx="0.981449" transform="rotate(-105 185.158 126.66)" fill="#091C4A"/>
<rect x="187.518" y="218.326" width="114.978" height="2.52006" rx="1.26003" transform="rotate(-119.371 187.518 218.326)" fill="#091C4A"/>
<rect x="179.562" y="202.494" width="2.52006" height="13.4695" rx="1.26003" transform="rotate(-74.2165 179.562 202.494)" fill="#091C4A"/>
<rect x="183.544" y="210.33" width="2.52006" height="9.81449" rx="0.981449" transform="rotate(-74.2165 183.544 210.33)" fill="#091C4A"/>
<rect x="178.092" y="201.518" width="2.52006" height="13.4695" rx="1.26003" transform="rotate(15.7835 178.092 201.518)" fill="#091C4A"/>
<rect x="182.447" y="208.857" width="2.52006" height="9.81449" rx="0.981449" transform="rotate(15.7835 182.447 208.857)" fill="#091C4A"/>
<rect x="140.845" y="131.932" width="2.52006" height="13.4695" rx="1.26003" transform="rotate(105.784 140.845 131.932)" fill="#091C4A"/>
<rect x="136.865" y="124.096" width="2.52006" height="9.81449" rx="0.981449" transform="rotate(105.784 136.865 124.096)" fill="#091C4A"/>
<rect x="142.315" y="132.906" width="2.52006" height="13.4695" rx="1.26003" transform="rotate(-164.216 142.315 132.906)" fill="#091C4A"/>
<rect x="137.96" y="125.566" width="2.52006" height="9.81449" rx="0.981449" transform="rotate(-164.216 137.96 125.566)" fill="#091C4A"/>
<rect x="218.419" y="168.582" width="114.978" height="2.52006" rx="1.26003" transform="rotate(179.846 218.419 168.582)" fill="#091C4A"/>
<rect x="200.715" y="167.799" width="2.52006" height="13.4695" rx="1.26003" transform="rotate(-135 200.715 167.799)" fill="#091C4A"/>
<rect x="209.496" y="168.148" width="2.52006" height="9.81449" rx="0.981449" transform="rotate(-135 209.496 168.148)" fill="#091C4A"/>
<rect x="199.146" y="168.604" width="2.52006" height="13.4695" rx="1.26003" transform="rotate(-45 199.146 168.604)" fill="#091C4A"/>
<rect x="207.677" y="168.385" width="2.52006" height="9.81449" rx="0.981449" transform="rotate(-45 207.677 168.385)" fill="#091C4A"/>
<rect x="120.236" y="167.139" width="2.52006" height="13.4695" rx="1.26003" transform="rotate(45 120.236 167.139)" fill="#091C4A"/>
<rect x="111.455" y="166.789" width="2.52006" height="9.81449" rx="0.981449" transform="rotate(45 111.455 166.789)" fill="#091C4A"/>
<rect x="121.808" y="166.336" width="2.52006" height="13.4695" rx="1.26003" transform="rotate(135 121.808 166.336)" fill="#091C4A"/>
<rect x="113.274" y="166.553" width="2.52006" height="9.81449" rx="0.981449" transform="rotate(135 113.274 166.553)" fill="#091C4A"/>
<path d="M160.443 117.709L175.015 141.042L175.37 141.61L176.04 141.634L203.532 142.586L190.611 166.872L190.296 167.464L190.611 168.056L203.532 192.341L176.04 193.294L175.37 193.317L175.015 193.886L160.443 217.219L145.872 193.886L145.517 193.317L144.847 193.294L117.354 192.341L130.275 168.056L130.59 167.464L130.275 166.872L117.354 142.586L144.847 141.634L145.517 141.61L145.872 141.042L160.443 117.709Z" fill="#091C4A" stroke="#091C4A" stroke-width="2.52006"/>
<path d="M174.55 142.208L175.28 157.892L175.312 158.562L175.884 158.91L189.3 167.068L176.083 175.543L175.518 175.905L175.503 176.575L175.146 192.272L161.198 185.063L160.602 184.755L160.014 185.077L146.241 192.617L145.51 176.932L145.479 176.263L144.906 175.914L131.49 167.757L144.708 159.282L145.273 158.92L145.288 158.249L145.645 142.552L159.593 149.761L160.189 150.069L160.777 149.747L174.55 142.208Z" fill="#091C4A" stroke="#091C4A" stroke-width="2.52006"/>
<path d="M160.093 151.035L164.808 158.256L165.175 158.818L165.845 158.827L174.469 158.952L170.572 166.646L170.269 167.244L170.596 167.83L174.8 175.361L166.188 175.833L165.519 175.87L165.175 176.445L160.755 183.851L156.04 176.63L155.674 176.068L155.003 176.059L146.38 175.934L150.276 168.24L150.579 167.641L150.253 167.056L146.049 159.525L154.661 159.053L155.33 159.016L155.673 158.44L160.093 151.035Z" stroke="#091C4A" stroke-width="2.52006"/>
<path d="M164.714 159.611L164.97 163.993L165.009 164.662L165.586 165.004L169.363 167.241L165.695 169.653L165.135 170.022L165.128 170.692L165.079 175.081L161.157 173.111L160.557 172.811L159.973 173.139L156.148 175.292L155.892 170.91L155.853 170.241L155.276 169.899L151.499 167.662L155.167 165.25L155.727 164.882L155.734 164.211L155.783 159.822L159.705 161.792L160.305 162.092L160.889 161.764L164.714 159.611Z" stroke="#091C4A" stroke-width="2.52006"/>
<circle cx="160.94" cy="166.428" r="14.6026" transform="rotate(-180 160.94 166.428)" fill="#FFB800" stroke="#091C4A" stroke-width="1.19203"/>
<defs>
<filter id="filter0_d_626_191" x="190.312" y="0.881497" width="1401.76" height="332.75" filterUnits="userSpaceOnUse" color-interpolation-filters="sRGB">
<feFlood flood-opacity="0" result="BackgroundImageFix"/>
<feColorMatrix in="SourceAlpha" type="matrix" values="0 0 0 0 0 0 0 0 0 0 0 0 0 0 0 0 0 0 127 0" result="hardAlpha"/>
<feOffset dy="1.6988"/>
<feGaussianBlur stdDeviation="53.0874"/>
<feComposite in2="hardAlpha" operator="out"/>
<feColorMatrix type="matrix" values="0 0 0 0 0.282353 0 0 0 0 0.792157 0 0 0 0 0.894118 0 0 0 1 0"/>
<feBlend mode="normal" in2="BackgroundImageFix" result="effect1_dropShadow_626_191"/>
<feBlend mode="normal" in="SourceGraphic" in2="effect1_dropShadow_626_191" result="shape"/>
</filter>
</defs>
</svg>
